<?xml version="1.0" standalone="no"?>
<!DOCTYPE svg PUBLIC "-//W3C//DTD SVG 20010904//EN"
 "http://www.w3.org/TR/2001/REC-SVG-20010904/DTD/svg10.dtd">
<svg version="1.0" xmlns="http://www.w3.org/2000/svg"
 width="512.000000pt" height="512.000000pt" viewBox="0 0 512.000000 512.000000"
 preserveAspectRatio="xMidYMid meet">
<metadata>
Created by potrace 1.14, written by Peter Selinger 2001-2017
</metadata>
<g transform="translate(0.000000,512.000000) scale(0.100000,-0.100000)"
fill="#000000" stroke="none">
<path d="M2966 4825 c-20 -7 -46 -21 -56 -30 -25 -23 -28 -32 -144 -415 -36
-118 -108 -354 -160 -525 -52 -170 -104 -341 -116 -380 -12 -38 -37 -120 -55
-180 l-34 -110 -93 -35 c-51 -19 -95 -35 -98 -36 -3 0 -12 -4 -20 -7 -8 -3
-94 -35 -190 -70 -597 -220 -840 -311 -875 -328 -71 -33 -98 -112 -65 -187 11
-25 31 -47 49 -57 29 -15 208 -81 966 -361 171 -63 315 -120 321 -127 6 -7 35
-93 64 -192 29 -99 60 -207 70 -240 39 -126 74 -244 210 -703 76 -260 148
-486 159 -501 52 -72 179 -70 227 4 9 14 36 91 60 172 24 82 52 177 63 213 11
36 47 159 81 275 34 116 84 282 110 370 26 88 76 257 111 375 34 118 67 220
73 227 6 6 72 34 146 61 646 236 1083 399 1128 421 72 34 98 112 62 185 -22
47 -60 71 -170 109 -57 20 -290 107 -915 339 -44 16 -119 44 -167 61 -100 36
-82 7 -151 237 -34 112 -139 455 -158 515 -5 17 -36 120 -69 230 -34 110 -76
250 -95 310 -18 61 -47 155 -64 210 -34 111 -49 138 -90 160 -43 22 -73 24
-115 10z"/>
<path d="M783 4779 c-43 -12 -76 -55 -106 -136 -69 -183 -97 -262 -97 -270 0
-11 -42 -28 -240 -100 -164 -59 -207 -101 -195 -190 10 -78 33 -95 246 -173
96 -35 175 -65 177 -66 2 -1 32 -79 68 -175 35 -95 71 -183 79 -196 44 -67
149 -77 212 -20 12 11 34 52 48 91 15 39 30 80 35 91 5 11 24 62 43 114 l34
94 126 47 c70 26 128 46 129 44 2 -1 32 12 68 30 75 36 103 74 103 142 0 31
-7 53 -26 78 -27 35 -36 39 -287 133 -36 14 -76 29 -90 34 -21 8 -34 35 -85
176 -33 91 -68 178 -77 194 -33 54 -97 77 -165 58z"/>
<path d="M1385 1830 c-53 -26 -70 -57 -105 -188 -66 -248 -81 -303 -91 -329
-6 -16 -10 -30 -9 -33 1 -3 -76 -34 -172 -70 -95 -36 -183 -72 -194 -80 -48
-34 -67 -111 -41 -167 19 -44 44 -63 115 -89 37 -14 74 -28 82 -31 8 -3 20 -7
25 -9 6 -2 49 -18 97 -35 l87 -33 11 -45 c7 -25 14 -55 17 -66 7 -32 9 -39 16
-60 3 -11 8 -31 11 -45 18 -94 80 -318 94 -342 21 -36 91 -71 130 -65 42 7 87
32 105 60 12 18 74 238 92 327 2 8 8 35 15 60 7 25 14 54 16 65 2 11 10 40 17
65 14 50 -14 35 266 140 101 38 128 54 147 91 17 34 18 102 2 132 -22 43 -61
64 -233 127 l-174 64 -26 101 c-15 55 -31 111 -35 125 -5 14 -23 78 -40 144
-34 129 -61 178 -112 195 -44 16 -68 14 -113 -9z"/>
</g>
</svg>
